<?xml version="1.0" encoding="utf-8"?>
<!-- Generator: Adobe Illustrator 19.1.0, SVG Export Plug-In . SVG Version: 6.00 Build 0)  -->
<!DOCTYPE svg PUBLIC "-//W3C//DTD SVG 1.1//EN" "http://www.w3.org/Graphics/SVG/1.1/DTD/svg11.dtd">
<svg version="1.1" id="Layer_1" xmlns="http://www.w3.org/2000/svg" xmlns:xlink="http://www.w3.org/1999/xlink" x="0px" y="0px"
	 viewBox="0 0 300 200" style="enable-background:new 0 0 300 200;" xml:space="preserve">
<style type="text/css">
	.st0{fill-rule:evenodd;clip-rule:evenodd;fill:#FFFFFF;}
	.st1{fill-rule:evenodd;clip-rule:evenodd;fill:#231F20;}
	.st2{fill-rule:evenodd;clip-rule:evenodd;fill:none;stroke:#FFFFFF;stroke-width:2;stroke-miterlimit:10;}
	.st3{fill-rule:evenodd;clip-rule:evenodd;fill:#84CFF3;}
	.st4{fill:#84CFF3;}
	.st5{fill:#FFFFFF;}
</style>
<g>
	<g>
		<path class="st5" d="M60,26.3v4.8H47v-1.7h2.4V14.2H47v-1.7H60v4.8h-1.9v-3.1h-7V21h7.2v1.5h-7.2v6.9h7v-3.1H60z"/>
		<path class="st5" d="M70.2,31.1h-1.9l-4.9-12h-2.3v-1.6h6.3v1.6h-2.1l4,10l4.1-10h-2.2v-1.6h6.2v1.6h-2.2L70.2,31.1z"/>
		<path class="st5" d="M91.5,27.3c-1.1,2.5-3.7,4.2-6.5,4.2c-3.9,0-7.1-3.1-7.1-7c0-3.9,3.1-7.2,7-7.2c4.1,0,7.2,3.1,7.2,7.2v0.5
			H79.6c0.2,2.8,2.5,5,5.4,5c2,0,3.7-0.9,4.7-2.7H91.5z M90.5,23.5c-0.4-2.8-2.8-4.7-5.6-4.7c-2.6,0-5,2.2-5.3,4.7H90.5z"/>
		<path class="st5" d="M97,19.8c0.9-1.7,2.7-2.6,4.6-2.6c1.5,0,3.8,0.8,4.7,2.6c0.3,0.7,0.8,1.9,0.8,3.6v6.1h2.3v1.6H103v-1.6h2.3
			V24c0-1.2,0-2.4-0.7-3.5c-0.7-1.3-2.3-1.7-3.6-1.7c-1.2,0-2.4,0.5-3.2,1.4c-0.9,1-0.9,2.2-0.9,3.5v5.7h2.3v1.6H93v-1.6h2.3V19.1
			H93v-1.6h4V19.8z"/>
		<path class="st5" d="M114.4,29.5h3.2v1.6h-4.9v-12h-2.6v-1.6h2.6v-4.9h1.7v4.9h3v1.6h-3V29.5z"/>
		<path class="st5" d="M142.6,17.1c-1.4-2.1-3.9-3.1-6.4-3.1c-4.3,0-7.8,3.4-7.8,7.7c0,4.3,3.4,7.9,7.8,7.9c2.6,0,5-1.2,6.5-3.4h2.1
			c-1.6,3.2-5,5.2-8.5,5.2c-2.5,0-5.1-1.1-6.9-2.8c-1.9-1.9-2.8-4.3-2.8-7c0-2.7,1.1-5,2.9-6.9c1.6-1.7,4.1-2.7,6.8-2.7
			c2.5,0,4.8,0.9,6.4,2.7v-2.2h1.7v4.5H142.6z"/>
		<path class="st5" d="M159.1,27.3c-1.1,2.5-3.7,4.2-6.5,4.2c-3.9,0-7.1-3.1-7.1-7c0-3.9,3.1-7.2,7-7.2c4.1,0,7.2,3.1,7.2,7.2v0.5
			h-12.5c0.2,2.8,2.5,5,5.4,5c2,0,3.7-0.9,4.7-2.7H159.1z M158.1,23.5c-0.4-2.8-2.8-4.7-5.6-4.7c-2.6,0-5,2.2-5.3,4.7H158.1z"/>
		<path class="st5" d="M164.6,19.8c0.9-1.7,2.7-2.6,4.6-2.6c1.5,0,3.8,0.8,4.7,2.6c0.3,0.7,0.8,1.9,0.8,3.6v6.1h2.3v1.6h-6.3v-1.6
			h2.3V24c0-1.2,0-2.4-0.7-3.5c-0.7-1.3-2.3-1.7-3.6-1.7c-1.2,0-2.4,0.5-3.2,1.4c-0.9,1-0.9,2.2-0.9,3.5v5.7h2.3v1.6h-6.3v-1.6h2.3
			V19.1h-2.3v-1.6h4V19.8z"/>
		<path class="st5" d="M182,29.5h3.2v1.6h-4.9v-12h-2.6v-1.6h2.6v-4.9h1.7v4.9h3v1.6h-3V29.5z"/>
		<path class="st5" d="M190.1,20.2c0.6-1.9,2.4-2.7,4.4-2.8v1.6c-3,0.3-4.4,2-4.4,4.9v5.5h2.3v1.6h-6.3v-1.6h2.3V19.1h-2.3v-1.6h4
			V20.2z"/>
		<path class="st5" d="M208,28.3c-1.2,2.1-3.2,3.2-5.6,3.2c-2.5,0-4.8-1.2-6-3.2c-0.7-1.1-1.1-2.4-1.1-3.9c0-2,0.6-2.9,1.1-3.9
			c1.1-2,3.4-3.2,5.9-3.2s4.3,1.1,5.6,3.2v-3h4v1.6h-2.3v10.4h2.3v1.6h-4V28.3z M197.1,24.4c0,2.9,2.4,5.4,5.4,5.4
			c3.1,0,5.5-2.4,5.5-5.5c0-3-2.4-5.4-5.4-5.4C199.6,18.9,197.1,21.3,197.1,24.4z"/>
		<path class="st5" d="M216.8,29.5h2.3v1.6h-6.4v-1.6h2.4V14.1h-2.3v-1.6h4V29.5z"/>
	</g>
</g>
<path class="st0" d="M18.6,21.4c0.2-2,2-3,4-3c2,0,3.8,1,4,3c0.1,1-0.1,3.5-0.7,4.4c-0.5,0.8-1.5,1.6-2.7,1.9
	c-0.6,0.1-0.7,0.1-1.3,0c-1.2-0.3-2.2-1.1-2.7-1.9C18.8,24.9,18.5,22.4,18.6,21.4L18.6,21.4z M29.9,34.8l0.1-1.9
	c0.2-4.1-8-5.2-12.3-3.3c2.7,1.3,4.5,3.4,4.3,6.3l0,0.1C24.7,36.1,27.3,35.7,29.9,34.8L29.9,34.8z M4.6,20.3c0.3-2.7,2.7-4,5.3-4
	c2.7,0,5.1,1.3,5.3,4c0.1,1.4-0.2,4.7-0.9,6c-0.6,1.1-2,2.2-3.6,2.5c-0.8,0.1-1,0.1-1.7,0c-1.6-0.4-3-1.4-3.6-2.5
	C4.8,25,4.5,21.7,4.6,20.3L4.6,20.3z M19.8,38.3c-6.6,2.3-13.1,2.2-19.7,0L0,35.8c-0.4-7.5,20.4-7.5,19.9,0L19.8,38.3L19.8,38.3z
	 M14.8,14.3h3.4v3c0,0.4,0.5,0.3,0.7,0l2.5-3h12.3c0.4,0,0.7-0.3,0.7-0.7v-13C34.4,0.2,34,0,33.5,0H15c-0.4,0-0.8,0.2-0.8,0.7v13
	C14.2,14,14.5,14.3,14.8,14.3L14.8,14.3z M31.5,3.2v1.4H17.1V3.2H31.5L31.5,3.2z M31.5,6.4v1.4H17.1V6.4H31.5L31.5,6.4z M24.3,9.5
	v1.4h-7.2V9.5H24.3z"/>
</svg>
