<?xml version="1.0" encoding="utf-8"?>
<!-- Generator: Adobe Illustrator 19.1.0, SVG Export Plug-In . SVG Version: 6.00 Build 0)  -->
<!DOCTYPE svg PUBLIC "-//W3C//DTD SVG 1.1//EN" "http://www.w3.org/Graphics/SVG/1.1/DTD/svg11.dtd">
<svg version="1.1" id="Layer_1" xmlns="http://www.w3.org/2000/svg" xmlns:xlink="http://www.w3.org/1999/xlink" x="0px" y="0px"
	 viewBox="0 0 200 200" style="enable-background:new 0 0 200 200;" xml:space="preserve">
<style type="text/css">
	.st0{fill-rule:evenodd;clip-rule:evenodd;fill:#FFFFFF;}
	.st1{fill-rule:evenodd;clip-rule:evenodd;fill:#231F20;}
	.st2{fill-rule:evenodd;clip-rule:evenodd;fill:none;stroke:#FFFFFF;stroke-width:2;stroke-miterlimit:10;}
	.st3{fill-rule:evenodd;clip-rule:evenodd;fill:#84CFF3;}
	.st4{fill:#84CFF3;}
	.st5{fill:#FFFFFF;}
</style>
<path class="st4" d="M83.9,62.5c2.2,0,4.3,0.3,6.2,0.9c6.6-6.7,10.7-15.9,10.9-25.9C101.3,16.8,84.8,0,64.1,0
	C43.4,0,26.3,16.8,26,37.5c-0.1,7.9,2.2,15.3,6.3,21.4L2,88.6c-2.6,2.6-2.7,6.8-0.2,9.4c2.5,2.6,6.8,2.6,9.4,0l30.3-29.8
	c6,4.2,13.3,6.7,21.3,6.7c0.6,0,1.2,0,1.8,0C67.9,67.6,75.4,62.5,83.9,62.5z M63,62.5c-13.8,0-24.8-11.2-24.6-25
	c0.2-13.8,11.6-25,25.4-25c13.8,0,24.8,11.2,24.6,25C88.2,51.3,76.8,62.5,63,62.5z M83.8,66.7c-9.2,0-16.8,7.5-17,16.7
	C66.7,92.5,74,100,83.2,100c9.2,0,16.8-7.5,17-16.7C100.3,74.1,93,66.7,83.8,66.7z M80.6,92.5l-9-9.1l3.6-3.5l5.5,5.6l11.4-11.2
	l3.5,3.5L80.6,92.5z"/>
</svg>
