<?xml version="1.0" encoding="utf-8"?>
<!-- Generator: Adobe Illustrator 19.1.0, SVG Export Plug-In . SVG Version: 6.00 Build 0)  -->
<!DOCTYPE svg PUBLIC "-//W3C//DTD SVG 1.1//EN" "http://www.w3.org/Graphics/SVG/1.1/DTD/svg11.dtd">
<svg version="1.1" id="Layer_1" xmlns="http://www.w3.org/2000/svg" xmlns:xlink="http://www.w3.org/1999/xlink" x="0px" y="0px"
	 viewBox="0 0 150 100" style="enable-background:new 0 0 150 100;" xml:space="preserve">
<style type="text/css">
	.st0{fill-rule:evenodd;clip-rule:evenodd;fill:#FFFFFF;}
	.st1{fill-rule:evenodd;clip-rule:evenodd;fill:#231F20;}
	.st2{fill-rule:evenodd;clip-rule:evenodd;fill:none;stroke:#FFFFFF;stroke-width:2;stroke-miterlimit:10;}
	.st3{fill-rule:evenodd;clip-rule:evenodd;fill:#83D0F4;}
	.st4{fill:#83D0F4;}
	.st5{fill:#FFFFFF;}
</style>
<path class="st3" d="M7.6,72.8c2.1,0,4,0,5.8,0c1.7,0.2,3.1-0.2,4-1.4c0.7-1.1,1.3-2.5,1.6-4.3c-1.5-1.6-2.7-3.5-3.3-5.8
	c-0.8-0.4-1.5-1.2-1.9-2.2c-0.5-1.1-0.7-2.5-0.6-4.2l0-0.5l0.4-0.3c0.1-0.1,0.2-0.1,0.3-0.2c-1-7.2-0.2-10.6,3-13.1
	c4.9-4,14.1-4,19.1-0.4c3.4,2.5,4.6,6.8,3.7,13.4c0.2,0.1,0.3,0.2,0.5,0.3l0.4,0.3l0,0.5c0,1.7-0.2,3.1-0.6,4.2
	c-0.4,1-1,1.7-1.8,2.2c-0.6,2.1-1.7,3.9-3,5.5c0.4,2.3,1.1,4.1,2.2,5.3c0.9,0.5,2.2,0.6,3.6,0.5c1.7,0,3.5,0,5.4,0
	c5,4.7,8.2,15.8,7.4,23c-8.2,5.7-47.5,6-53.7,0C0.1,89.2,1.3,78.3,7.6,72.8L7.6,72.8z M68.5,81.6c1.1,0,2.1,0,3.1,0
	c0.9,0.1,1.6-0.1,2.1-0.7c0.4-0.6,0.7-1.4,0.9-2.3c-0.8-0.8-1.4-1.9-1.8-3.1c-0.4-0.2-0.8-0.6-1-1.2c-0.2-0.6-0.4-1.3-0.3-2.3l0-0.3
	l0.2-0.2c0,0,0.1-0.1,0.1-0.1c-0.5-3.8-0.1-5.6,1.6-7c2.6-2.1,7.5-2.1,10.2-0.2c1.8,1.3,2.4,3.6,2,7.1c0.1,0,0.2,0.1,0.3,0.2
	l0.2,0.2l0,0.3c0,0.9-0.1,1.6-0.3,2.2c-0.2,0.5-0.5,0.9-1,1.2c-0.3,1.1-0.9,2.1-1.6,2.9c0.2,1.2,0.6,2.2,1.1,2.8
	c0.5,0.3,1.2,0.3,1.9,0.3c0.9,0,1.9,0,2.9,0c0.8,0.8,1.5,1.8,2.1,3c2-0.3,4.5-0.5,5-0.5c0.3-1,0.6-2,0.8-3c-1.5-1-2.5-2.4-3.1-3.9
	c-0.7-0.1-2.4,0-3.1-0.1c-0.8-5.3,0.4-13.1,2.5-14.9c3.2-2.6,11-2.7,14.2-0.4c2.3,1.7,3.9,10.2,3.1,15c-0.4,0.2-2.7,0.1-3.1,0.3
	c-0.7,1.5-1.8,2.9-3.3,3.9c0.4,1.5,0.7,2.1,1.1,3c0.4,0,1.5,0.1,2.9,0.2c0.7-1.5,1.7-2.9,3-4c1.5,0,2.8,0,4.1,0
	c1.2,0.1,2.1-0.2,2.8-0.9c0.5-0.7,0.9-1.8,1.1-3c-1-1.1-1.8-2.5-2.3-4c-0.6-0.3-1-0.8-1.3-1.5c-0.3-0.8-0.5-1.8-0.4-2.9l0-0.4
	l0.3-0.2c0.1,0,0.1-0.1,0.2-0.1c-0.7-5-0.1-7.3,2.1-9.1c3.4-2.8,9.8-2.8,13.3-0.3c2.3,1.7,3.2,4.8,2.6,9.3c0.1,0.1,0.2,0.1,0.4,0.2
	l0.3,0.2l0,0.4c0,1.2-0.1,2.1-0.4,2.9c-0.3,0.7-0.7,1.2-1.3,1.5c-0.4,1.5-1.2,2.7-2.1,3.8c0.3,1.6,0.8,2.9,1.5,3.7
	c0.7,0.3,1.5,0.4,2.5,0.3c1.2,0,2.4,0,3.8,0c3.5,3.3,5.7,11,5.1,16c-3.9,4.2-27.9,5.8-35.8,1.2c-6.5,0.8-14.5,0.4-19.4-1.4
	c-7.5,1.6-20.3,1.4-23.5-2.1C64.5,90.4,65.1,84.6,68.5,81.6L68.5,81.6z M68.1,0C48.2,0,32,11,32,24.5c0,9.7,8.3,18,20.2,22L48.6,52
	l7.9,2.2l-12.3,7.4l19.8-4.4l-3.9-5.6l6.4-2.7c0.5,0,0.9,0,1.4,0c19.9,0,36-11,36-24.5C104.1,11,87.9,0,68.1,0L68.1,0z M26.1,73
	l-1.5,3l1.6,1.2L22.4,92l5.2,3.8V96l0.2-0.1l0.2,0.1v-0.2L33,92l-3.9-14.8l1.6-1.2l-1.5-3l-1.6,0L26.1,73z"/>
</svg>
