<?xml version="1.0" encoding="utf-8"?>
<!-- Generator: Adobe Illustrator 19.1.0, SVG Export Plug-In . SVG Version: 6.00 Build 0)  -->
<!DOCTYPE svg PUBLIC "-//W3C//DTD SVG 1.1//EN" "http://www.w3.org/Graphics/SVG/1.1/DTD/svg11.dtd">
<svg version="1.1" id="Layer_1" xmlns="http://www.w3.org/2000/svg" xmlns:xlink="http://www.w3.org/1999/xlink" x="0px" y="0px"
	 viewBox="0 0 150 100" style="enable-background:new 0 0 150 100;" xml:space="preserve">
<style type="text/css">
	.st0{fill-rule:evenodd;clip-rule:evenodd;fill:#FFFFFF;}
	.st1{fill-rule:evenodd;clip-rule:evenodd;fill:#231F20;}
	.st2{fill-rule:evenodd;clip-rule:evenodd;fill:none;stroke:#FFFFFF;stroke-width:2;stroke-miterlimit:10;}
	.st3{fill-rule:evenodd;clip-rule:evenodd;fill:#83D0F4;}
	.st4{fill:#84CFF3;}
	.st5{fill:#FFFFFF;}
</style>
<path class="st3" d="M51.3,24.5c-0.9-6.1-6.4-9.1-12.3-9.1c-5.9,0-11,3-11.2,9.1c-0.1,3.2,1,10.7,2.7,13.6c1.5,2.5,4.8,4.9,8.3,5.7
	c1.7,0.3,2.1,0.3,3.8,0c3.4-0.8,6.4-3.2,7.6-5.7C51.5,35.2,51.7,27.7,51.3,24.5L51.3,24.5z M6.9,0h118.6c3.8,0,6.9,3.1,6.9,6.9v86.1
	c0,3.8-3.1,6.9-6.9,6.9h-64l-0.2-10.7h60.5V10.7H10.7v78.7H19l-1.2-24.2c-0.3-8,3.8-17.7,12-19.5c5.7-1.3,19.5,0.8,22.7,4.4
	c4.4,4.8,8,13.7,10.9,19.2l15.7,0.5c1.1,0.1,2.1,0.4,2.9,0.9l30.4-18.5l1.5,2.2L84.5,75.4c0.3,2.9-1.9,5.7-6.3,5.8l-22.1,0.1
	l-0.8-10.6L54.1,70l0.8,30H6.9C3.1,100,0,96.9,0,93.1V6.9C0,3.1,3.1,0,6.9,0z"/>
</svg>
