<?xml version="1.0" encoding="utf-8"?>
<!-- Generator: Adobe Illustrator 19.1.0, SVG Export Plug-In . SVG Version: 6.00 Build 0)  -->
<!DOCTYPE svg PUBLIC "-//W3C//DTD SVG 1.1//EN" "http://www.w3.org/Graphics/SVG/1.1/DTD/svg11.dtd">
<svg version="1.1" id="Layer_1" xmlns="http://www.w3.org/2000/svg" xmlns:xlink="http://www.w3.org/1999/xlink" x="0px" y="0px"
	 viewBox="0 0 200 200" style="enable-background:new 0 0 200 200;" xml:space="preserve">
<style type="text/css">
	.st0{fill-rule:evenodd;clip-rule:evenodd;fill:#FFFFFF;}
	.st1{fill-rule:evenodd;clip-rule:evenodd;fill:#231F20;}
	.st2{fill-rule:evenodd;clip-rule:evenodd;fill:none;stroke:#FFFFFF;stroke-width:2;stroke-miterlimit:10;}
	.st3{fill-rule:evenodd;clip-rule:evenodd;fill:#84CFF3;}
	.st4{fill:#84CFF3;}
	.st5{fill:#FFFFFF;}
</style>
<path class="st2" d="M83.4,95.5c0.8-8.8,8.7-13.3,17.6-13.3c8.8,0,16.7,4.4,17.6,13.3c0.4,4.6-0.6,15.5-2.9,19.7
	c-2,3.6-6.7,7.1-11.9,8.3c-2.5,0.4-3.1,0.4-5.6,0c-5.2-1.2-9.8-4.7-11.9-8.3C84.1,111,83,100.1,83.4,95.5L83.4,95.5z M133.4,154.8
	l0.4-8.2c1-18.1-35.2-22.9-54.3-14.6c11.9,5.8,19.8,15.1,19.1,27.9l0,0.4C110.2,160.6,121.8,158.8,133.4,154.8L133.4,154.8z
	 M21.5,90.7c1.1-11.9,11.7-17.8,23.6-17.8c11.9,0,22.5,5.9,23.6,17.8c0.6,6.2-0.8,20.9-3.9,26.4c-2.7,4.9-9,9.5-15.9,11.1
	c-3.4,0.5-4.2,0.5-7.6,0c-7-1.6-13.2-6.3-15.9-11.1C22.3,111.6,20.9,96.9,21.5,90.7L21.5,90.7z M88.6,170.4c-29,10-58,9.9-87,0
	l-0.6-11c-1.8-33.2,90-33.3,88.2,0L88.6,170.4L88.6,170.4z M66.6,64.2h14.9v13.1c0,1.7,2.2,1.2,3.1,0.1l11.1-13.2H150
	c1.6,0,2.9-1.3,2.9-2.9V3.9c0-2.2-1.7-2.9-3.7-2.9H67.4c-2,0-3.7,0.7-3.7,2.9v57.4C63.7,62.9,65,64.2,66.6,64.2L66.6,64.2z
	 M140.2,15.1v6.2H76.4v-6.2H140.2L140.2,15.1z M140.2,29.2v6.2H76.4v-6.2H140.2L140.2,29.2z M108.3,43.2v6.2H76.4v-6.2H108.3z"/>
</svg>
