<?xml version="1.0" encoding="utf-8"?>
<!-- Generator: Adobe Illustrator 19.1.0, SVG Export Plug-In . SVG Version: 6.00 Build 0)  -->
<!DOCTYPE svg PUBLIC "-//W3C//DTD SVG 1.1//EN" "http://www.w3.org/Graphics/SVG/1.1/DTD/svg11.dtd">
<svg version="1.1" id="Layer_1" xmlns="http://www.w3.org/2000/svg" xmlns:xlink="http://www.w3.org/1999/xlink" x="0px" y="0px"
	 viewBox="0 0 150 100" style="enable-background:new 0 0 150 100;" xml:space="preserve">
<style type="text/css">
	.st0{fill-rule:evenodd;clip-rule:evenodd;fill:#FFFFFF;}
	.st1{fill-rule:evenodd;clip-rule:evenodd;fill:#231F20;}
	.st2{fill-rule:evenodd;clip-rule:evenodd;fill:none;stroke:#FFFFFF;stroke-width:2;stroke-miterlimit:10;}
	.st3{fill-rule:evenodd;clip-rule:evenodd;fill:#83D0F4;}
	.st4{fill:#84CFF3;}
	.st5{fill:#FFFFFF;}
</style>
<path class="st3" d="M0,95.9h2.1l1-6.2c0.3-1.2,1.3-2.3,2.5-2.7l7.4-2.5c0.9-0.3,1.8-1.1,1.8-2.1c-1.1-1.2-1.4-2.8-1.8-4.2l-0.5-0.3
	c-0.7-1.8-0.9-3.5-0.8-5l0.4-0.3c-0.1-1.4-0.1-3.8,0.6-5c2.5-4.6,10.5-4.6,13,0c0.7,1.2,0.7,3.7,0.6,5l0.4,0.3
	c0.1,1.5-0.1,3.1-0.8,5l-0.5,0.3c-0.4,1.4-0.6,3-1.8,4.2c0,0.8,0.7,1.8,1.5,2l7.7,2.5c1.2,0.4,2.2,1.5,2.5,2.7l1,6.2H41l1-6.2
	c0.3-1.2,1.3-2.3,2.5-2.7l7.4-2.5c0.9-0.3,1.8-1.1,1.8-2.1c-1.1-1.2-1.4-2.8-1.8-4.2l-0.5-0.3c-0.7-1.8-0.9-3.5-0.8-5l0.4-0.3
	c-0.1-1.4-0.1-3.8,0.6-5c2.5-4.6,10.5-4.6,13,0c0.7,1.2,0.7,3.7,0.6,5l0.4,0.3c0.1,1.5-0.1,3.1-0.8,5l-0.5,0.3
	c-0.4,1.4-0.6,3-1.8,4.2c0,0.8,0.7,1.8,1.5,2l7.7,2.5c1.2,0.4,2.2,1.5,2.5,2.7l1,6.2h4.7l1-6.2c0.3-1.2,1.3-2.3,2.5-2.7l7.4-2.5
	c0.9-0.3,1.8-1.1,1.8-2.1c-1.1-1.2-1.4-2.8-1.8-4.2l-0.5-0.3c-0.7-1.8-0.9-3.5-0.8-5l0.4-0.3c-0.1-1.4-0.1-3.8,0.6-5
	c2.5-4.6,10.5-4.6,13,0c0.7,1.2,0.7,3.7,0.6,5l0.4,0.3c0.1,1.5-0.1,3.1-0.8,5l-0.5,0.3c-0.4,1.4-0.6,3-1.8,4.2c0,0.8,0.7,1.8,1.5,2
	l7.7,2.5c1.2,0.4,2.2,1.5,2.5,2.7l1,6.2h3.9v4.1H0V95.9L0,95.9z M66.6,65.9c2.2,3.5,1.7,9.9,0.3,13.7h21.2c-1.5-4-2-10.6,0.7-14.2
	l-4.4-1.4c-0.8-0.2-1.5-1.2-1.5-2c1.1-1.2,1.4-2.8,1.8-4.2l0.5-0.3c0.7-1.8,0.9-3.5,0.8-5l-0.4-0.3c0.1-1.4,0.1-3.8-0.6-5
	c-2.5-4.6-10.5-4.6-13,0c-0.7,1.2-0.7,3.7-0.6,5l-0.4,0.3c-0.1,1.5,0.1,3.1,0.8,5l0.5,0.3c0.4,1.4,0.6,3,1.8,4.2
	c0,1-0.8,1.8-1.8,2.1L66.6,65.9L66.6,65.9z M27.7,65.9c2.2,3.5,1.7,9.9,0.3,13.7h21.2c-1.5-4-2-10.6,0.7-14.2l-4.4-1.4
	c-0.8-0.2-1.5-1.2-1.5-2c1.1-1.2,1.4-2.8,1.8-4.2l0.5-0.3c0.7-1.8,0.9-3.5,0.8-5l-0.4-0.3c0.1-1.4,0.1-3.8-0.6-5
	c-2.5-4.6-10.5-4.6-13,0c-0.7,1.2-0.7,3.7-0.6,5l-0.4,0.3c-0.1,1.5,0.1,3.1,0.8,5l0.5,0.3c0.4,1.4,0.6,3,1.8,4.2
	c0,1-0.8,1.8-1.8,2.1L27.7,65.9L27.7,65.9z M22.1,41.7V0c24.6,0,49.2,0,73.8,0v41.7H59.8l-0.7-4.4c-0.3-1.1-1.2-2.1-2.3-2.5l-7-2.3
	c-0.7-0.2-1.4-1.1-1.4-1.8c1-1.1,1.3-2.5,1.6-3.8l0.5-0.3c0.6-1.7,0.8-3.2,0.7-4.5l-0.3-0.3c0.1-1.2,0.1-3.5-0.5-4.6
	c-2.3-4.2-9.6-4.2-11.9,0c-0.6,1.1-0.6,3.3-0.5,4.6l-0.3,0.3c-0.1,1.4,0.1,2.9,0.7,4.5l0.5,0.3c0.3,1.3,0.6,2.7,1.6,3.8
	c0,0.9-0.8,1.6-1.6,1.9L32,34.8c-1.1,0.3-2,1.4-2.3,2.5l-0.7,4.4H22.1z"/>
</svg>
